<svg width="60" height="60" viewBox="0 0 100 100" fill="none" xmlns="http://www.w3.org/2000/svg">
<g clip-path="url(#clip0)">
<path d="M92.2882 98.5355H7.71168C5.4659 98.5355 3.64545 96.7151 3.64545 94.4693V5.5323C3.64545 3.28652 5.4659 1.46606 7.71168 1.46606H92.2882C94.534 1.46606 96.3544 3.28652 96.3544 5.5323V94.4693C96.3544 96.7151 94.534 98.5355 92.2882 98.5355Z" fill="#C3E5AD"/>
<path d="M96.3554 5.53229V94.4677C96.3554 96.7139 94.5342 98.5349 92.2882 98.5349H87.142C89.3881 98.5349 91.2072 96.7137 91.2072 94.4677V5.53229C91.2072 3.28613 89.3879 1.46509 87.142 1.46509H92.2882C94.5344 1.46489 96.3554 3.28613 96.3554 5.53229Z" fill="#C3E5AD"/>
<path d="M83.8023 89.6497H16.1976C13.9518 89.6497 12.1313 87.8292 12.1313 85.5835V14.4163C12.1313 12.1706 13.9518 10.3501 16.1976 10.3501H83.8023C86.0481 10.3501 87.8686 12.1706 87.8686 14.4163V85.5835C87.8686 87.8292 86.0481 89.6497 83.8023 89.6497Z" fill="#C3E5AD"/>
<path d="M87.8998 14.388V85.612C87.8998 87.8607 86.077 89.6816 83.8302 89.6816H78.6783C80.9251 89.6816 82.7479 87.8607 82.7479 85.612V14.388C82.7479 12.1393 80.9251 10.3185 78.6783 10.3185H83.8302C86.077 10.3185 87.8998 12.1393 87.8998 14.388Z" fill="#C3E5AD"/>
<path d="M75.479 44.2569C74.4343 42.3632 72.052 41.6747 70.1579 42.7196C69.91 42.8563 68.456 43.6706 66.8728 44.8026C66.1948 43.6347 64.9339 42.8473 63.4862 42.8473C61.3231 42.8473 59.5696 44.6008 59.5696 46.7639V69.0157C59.5696 71.1789 61.3231 72.9321 63.4862 72.9321C65.6494 72.9321 67.4028 71.1787 67.4028 69.0157V55.7908C67.428 55.6649 67.673 54.733 69.6816 52.6187C70.6756 51.5723 72.8241 50.1973 73.9448 49.5764C75.8363 48.5304 76.5234 46.1497 75.479 44.2569Z" fill="#C3E5AD"/>
<path d="M75.9682 46.1461C75.9682 47.5247 75.2377 48.8622 73.9453 49.577C72.8233 50.1977 70.675 51.5725 69.6821 52.6181C67.673 54.733 67.4282 55.6651 67.4028 55.7905V68.9192C67.4028 71.1134 65.6071 72.9721 63.4133 72.9323C62.8059 72.9211 62.2323 72.7719 61.7238 72.514C63.0005 71.8697 63.8779 70.546 63.8779 69.0165L63.7663 55.4104C63.7529 53.7767 64.3431 52.1973 65.4231 50.9716C65.605 50.7651 65.8066 50.5447 66.0299 50.3095C67.0247 49.2638 69.1728 47.8871 70.2931 47.2664C71.5854 46.5517 72.3159 45.2142 72.3159 43.8355C72.3159 43.2951 72.2044 42.7506 71.9713 42.2336C73.3774 42.2063 74.752 42.9385 75.4786 44.2565C75.8095 44.8577 75.9682 45.5057 75.9682 46.1461Z" fill="#C3E5AD"/>
<path d="M48.9652 31.3217C46.1478 28.5785 42.4451 27.0677 38.5389 27.0677C38.5389 27.0677 27.9762 27.0677 27.9495 27.0677C26.8849 27.0677 25.9245 27.4705 25.1756 28.2194C24.4207 28.9768 24.0331 29.9132 24.0331 30.9843V69.0155C24.0331 71.1787 25.7865 72.9319 27.9497 72.9319C30.1128 72.9319 31.8662 71.1785 31.8662 69.0155V56.3909C34.1966 56.3786 37.0123 56.3655 38.5393 56.3655C42.4455 56.3655 46.1481 54.8547 48.9656 52.1117C51.8242 49.3285 53.3983 45.6368 53.3983 41.7167C53.3979 37.7968 51.8236 34.1049 48.9652 31.3217ZM38.5389 48.5328C37.0181 48.5328 34.2402 48.5457 31.9176 48.5578C31.9053 46.1635 31.8922 43.2711 31.8922 41.7167C31.8922 40.4034 31.8846 37.3994 31.8776 34.9006H38.5389C42.3474 34.9006 45.565 38.0221 45.565 41.7167C45.565 45.4113 42.3474 48.5328 38.5389 48.5328Z" fill="#C3E5AD"/>
<path d="M48.966 31.3222C46.1482 28.5787 42.4451 27.0669 38.5383 27.0669H35.0135C38.9201 27.0669 42.6231 28.5787 45.4411 31.3222C50.4424 36.1924 50.4287 44.2936 45.4411 49.1521C42.6233 51.8937 38.9203 52.8069 35.0135 52.8069C33.7426 52.8069 31.5806 52.8166 29.548 52.8264C28.8802 52.8283 28.3418 53.3728 28.3418 54.0404V69.0165C28.3418 70.5458 27.4646 71.8697 26.1857 72.512C26.7163 72.7822 27.3155 72.9331 27.9501 72.9331C30.112 72.9331 31.8666 71.1784 31.8666 69.0165V56.3917C34.197 56.378 37.0109 56.3663 38.5383 56.3663C42.4449 56.3663 46.148 54.8545 48.966 52.1109C51.8231 49.3283 53.3976 45.637 53.3976 41.7167C53.3976 37.7964 51.8231 34.1049 48.966 31.3222Z" fill="#C3E5AD"/>
<path d="M92.2882 0H66.2161C65.4067 0 64.7508 0.655856 64.7508 1.46527C64.7508 2.27469 65.4067 2.93055 66.2161 2.93055H92.2882C93.7224 2.93055 94.8891 4.09729 94.8891 5.5315V94.4687C94.8891 95.9029 93.7224 97.0696 92.2882 97.0696H7.71167C6.27746 97.0696 5.11071 95.9029 5.11071 94.4687V5.5315C5.1109 4.09729 6.27746 2.93055 7.71167 2.93055H59.3455C60.155 2.93055 60.8108 2.27469 60.8108 1.46527C60.8108 0.655856 60.155 0 59.3455 0H7.71167C4.66175 0 2.18036 2.48139 2.18036 5.5315V94.4687C2.18036 97.5186 4.66175 100 7.71186 100H92.2884C95.3383 100 97.8199 97.5188 97.8199 94.4687V5.5315C97.8197 2.48139 95.3383 0 92.2882 0V0Z" fill="black"/>
<path d="M10.6661 14.4163V85.5837C10.6661 88.6336 13.1475 91.1152 16.1976 91.1152H83.8023C86.8525 91.1152 89.3338 88.6338 89.3338 85.5837V14.4163C89.3338 11.3664 86.8525 8.88483 83.8023 8.88483H16.1976C13.1475 8.88502 10.6661 11.3664 10.6661 14.4163ZM86.4033 14.4163V85.5837C86.4033 87.0179 85.2364 88.1846 83.8023 88.1846H16.1976C14.7634 88.1846 13.5966 87.0179 13.5966 85.5837V14.4163C13.5966 12.9821 14.7634 11.8154 16.1976 11.8154H83.8023C85.2365 11.8156 86.4033 12.9821 86.4033 14.4163Z" fill="black"/>
<path d="M27.9492 74.3973C30.9167 74.3973 33.3311 71.9832 33.3311 69.0157V65.9564C33.3311 65.147 32.6752 64.4911 31.8658 64.4911C31.0564 64.4911 30.4005 65.147 30.4005 65.9564V69.0157C30.4005 70.3672 29.3008 71.4668 27.9492 71.4668C26.5977 71.4668 25.4981 70.3672 25.4981 69.0157V30.9842C25.4981 30.3026 25.732 29.7366 26.2114 29.2556C26.6906 28.7762 27.2754 28.5331 27.9492 28.5331H38.5386C42.0608 28.5331 45.4006 29.8964 47.9428 32.3716C50.5156 34.8764 51.9326 38.1953 51.9326 41.7167C51.9326 45.238 50.5156 48.557 47.9428 51.0618C45.4006 53.5371 42.061 54.9002 38.5386 54.9002C36.9612 54.9002 34.035 54.9139 31.858 54.9256C31.0519 54.9299 30.4005 55.5846 30.4005 56.3909V59.1491C30.4005 59.9585 31.0564 60.6144 31.8658 60.6144C32.6752 60.6144 33.3311 59.9585 33.3311 59.1491V57.8489C35.2207 57.8396 37.2996 57.831 38.5386 57.831C42.8288 57.831 46.8948 56.1727 49.9873 53.1618C53.1316 50.1004 54.8632 46.0357 54.8632 41.7169C54.8632 37.398 53.1316 33.3334 49.9873 30.2719C46.8948 27.2609 42.8288 25.6028 38.5386 25.6028H27.9492C26.4908 25.6028 25.1734 26.1494 24.1374 27.1853C23.1103 28.2157 22.5676 29.5295 22.5676 30.9844V69.0159C22.5676 71.983 24.9819 74.3973 27.9492 74.3973Z" fill="black"/>
<path d="M30.8868 49.5993C31.1611 49.8709 31.5315 50.0231 31.9174 50.0231H31.925C35.0769 50.0065 37.302 49.9981 38.5386 49.9981C43.1416 49.9981 47.0302 46.2058 47.0302 41.7167C47.0302 37.2277 43.1416 33.4356 38.5386 33.4356H31.8773C31.488 33.4356 31.1148 33.5905 30.8397 33.8662C30.5646 34.1419 30.4109 34.5156 30.4121 34.905C30.4191 37.4022 30.4267 40.4042 30.4267 41.7167C30.4267 42.9743 30.4351 45.2144 30.4521 48.5652C30.4541 48.9538 30.6105 49.326 30.8868 49.5993ZM38.5386 36.3662C41.553 36.3662 44.0996 38.8165 44.0996 41.7169C44.0996 44.6174 41.553 47.0677 38.5386 47.0677C37.4989 47.0677 35.7658 47.0736 33.3754 47.0853C33.3631 44.5408 33.3573 42.7768 33.3573 41.7169C33.3573 40.6535 33.3524 38.4812 33.3465 36.3662H38.5386Z" fill="black"/>
<path d="M63.4864 74.3974C66.4539 74.3974 68.8682 71.9832 68.8682 69.0157V56.041C68.9937 55.7798 69.4305 55.0109 70.744 53.6278C71.569 52.7598 73.5655 51.4618 74.6539 50.8585C77.2486 49.4239 78.1946 46.145 76.7623 43.5491C75.3289 40.9507 72.0485 40.0039 69.45 41.4366C69.2332 41.5563 68.3091 42.0743 67.1556 42.8329C66.1713 41.9156 64.8616 41.3819 63.4866 41.3819C60.5193 41.3819 58.1049 43.796 58.1049 46.7637V69.0155C58.1047 71.983 60.5189 74.3974 63.4864 74.3974ZM61.0353 46.7639C61.0353 45.4123 62.1348 44.3126 63.4864 44.3126C64.3548 44.3126 65.167 44.7821 65.6058 45.538C65.813 45.8949 66.1612 46.1481 66.5644 46.2348C66.9679 46.3216 67.3895 46.2345 67.7251 45.9943C69.2344 44.9153 70.6062 44.1456 70.8655 44.0026C72.0494 43.349 73.5432 43.7814 74.196 44.9647H74.1962C74.8485 46.1471 74.4175 47.6405 73.2346 48.2946C72.3738 48.7715 69.8664 50.297 68.6193 51.6095C66.6572 53.6747 66.0934 54.8667 65.9662 55.503C65.9471 55.5976 65.9377 55.6943 65.9377 55.7908V69.0157C65.9377 70.3673 64.8379 71.4668 63.4864 71.4668C62.1348 71.4668 61.0353 70.3673 61.0353 69.0157V46.7639Z" fill="black"/>
</g>
<defs>
<clipPath id="clip0">
<rect width="100" height="100" fill="white"/>
</clipPath>
</defs>
</svg>
