<svg width="65" height="63" viewBox="0 0 65 63" fill="none" xmlns="http://www.w3.org/2000/svg">
<path d="M25.636 45.2528L22.5912 52.221H39.5554L36.5107 45.2528H25.636Z" fill="#C3E5AD"/>
<path d="M37.7909 48.1827L36.5107 45.2528H25.636L24.3558 48.1827H37.7909Z" fill="#C3E5AD"/>
<path d="M16.9881 54.4835V56.0482C16.9881 56.3436 17.2353 56.5832 17.5401 56.5832H44.6065C44.9113 56.5832 45.1585 56.3436 45.1585 56.0482V54.4835C45.1585 53.234 44.1133 52.2209 42.8241 52.2209H19.3226C18.0333 52.2209 16.9881 53.234 16.9881 54.4835Z" fill="#C3E5AD"/>
<path d="M0.952148 43.7773V10.196C0.952148 9.38104 1.63376 8.7204 2.47457 8.7204H59.6722C60.513 8.7204 61.1946 9.38104 61.1946 10.196V43.7773C61.1946 44.5922 60.513 45.2529 59.6722 45.2529H2.47457C1.63376 45.2528 0.952148 44.5921 0.952148 43.7773Z" fill="#C3E5AD"/>
<path d="M59.6722 39.7933H2.47457C1.63376 39.7933 0.952148 39.1327 0.952148 38.3177V10.196C0.952148 9.38104 1.63376 8.7204 2.47457 8.7204H59.6722C60.513 8.7204 61.1946 9.38104 61.1946 10.196V38.3177C61.1946 39.1327 60.513 39.7933 59.6722 39.7933Z" fill="#F4BBBC"/>
<path d="M31.0733 7.38217V35.6618H56.4241C56.7045 35.6618 56.9319 35.4414 56.9319 35.1696V3.518C56.9319 2.96319 56.5489 2.47518 55.9962 2.33036C46.2946 -0.211793 37.7992 0.251847 31.0733 7.38217Z" fill="#C3E5AD"/>
<path d="M31.0733 7.38217V35.6618H5.72266C5.44222 35.6618 5.21484 35.4414 5.21484 35.1696V3.518C5.21484 2.96319 5.59786 2.47518 6.15049 2.33036C15.8521 -0.211793 24.3474 0.251847 31.0733 7.38217Z" fill="#C3E5AD"/>
<path d="M46.9925 56.6444V54.9637C46.9925 52.8327 45.2102 51.1053 43.0116 51.1053H35.2888C33.0902 51.1053 31.3079 52.8327 31.3079 54.9637V56.6444C31.3079 58.7753 33.0902 60.5027 35.2888 60.5027H43.0116C45.2102 60.5029 46.9925 58.7753 46.9925 56.6444Z" fill="#C3E5AD"/>
<path d="M46.9925 56.6444V54.9637C46.9925 54.7471 46.9732 54.5351 46.9377 54.3284C46.6251 56.1568 44.9867 57.5515 43.0115 57.5515H35.2886C33.3134 57.5515 31.6752 56.1568 31.3624 54.3284C31.3269 54.5352 31.3076 54.7472 31.3076 54.9637V56.6444C31.3076 58.7753 33.0899 60.5027 35.2885 60.5027H43.0113C45.2102 60.5029 46.9925 58.7754 46.9925 56.6444Z" fill="#C3E5AD"/>
<path d="M35.6676 24.1563C35.4242 24.4075 35.5966 24.8371 35.9407 24.8371H52.1231C52.3364 24.8371 52.5095 24.6585 52.5095 24.4383V7.72741C52.5095 7.37205 52.0934 7.19412 51.8501 7.44539L35.6676 24.1563ZM48.4616 21.0475H44.7213C44.3846 21.0475 44.216 20.6272 44.454 20.3814L48.1943 16.5192C48.4324 16.2734 48.8394 16.4475 48.8394 16.7951V20.6573C48.8395 20.8728 48.6703 21.0475 48.4616 21.0475Z" fill="#F4BBBC"/>
<path d="M60.8436 48.6689H53.5641C52.3222 48.6689 51.3119 47.6897 51.3119 46.4861V46.176H59.6719C61.0361 46.176 62.1461 45.1002 62.1461 43.7778V38.3296C62.1461 38.3256 62.1467 38.3217 62.1467 38.3178C62.1467 38.3137 62.1462 38.3099 62.1461 38.3058V10.1959C62.1461 8.8735 61.0361 7.7977 59.6719 7.7977H57.8842V3.51801C57.8842 2.54704 57.21 1.69236 56.2448 1.43938C54.7834 1.05645 53.3667 0.746746 52.034 0.518863C51.5169 0.429531 51.0223 0.765326 50.9311 1.26736C50.8398 1.76939 51.1855 2.24804 51.7033 2.33651C52.9803 2.55492 54.341 2.85257 55.7479 3.22122C55.8845 3.25703 55.9799 3.37909 55.9799 3.51801V34.7389H32.0256V7.74442C36.1254 3.53216 41.1698 1.61004 47.4343 1.86906C47.9601 1.89133 48.4039 1.49561 48.4261 0.986441C48.4486 0.477273 48.0408 0.0468555 47.5155 0.0250762C40.8839 -0.249072 35.4937 1.72251 31.0743 6.04514C27.8713 2.90819 24.2025 1.03148 19.8876 0.319281C15.8785 -0.342342 11.3038 0.0239689 5.90192 1.4395C4.9367 1.69248 4.2627 2.54717 4.2627 3.51813V7.79782H2.47432C1.10995 7.7977 0 8.8735 0 10.1959V19.3875C0 19.8971 0.426182 20.3103 0.952148 20.3103C1.47812 20.3103 1.9043 19.8971 1.9043 19.3875V10.1959C1.9043 9.89122 2.16011 9.6434 2.47432 9.6434H4.2627V35.1696C4.2627 35.9498 4.91766 36.5846 5.72267 36.5846H56.4241C57.2291 36.5846 57.884 35.9498 57.884 35.1696V9.6434H59.6718C59.9861 9.6434 60.2417 9.89122 60.2417 10.1959V38.3238C60.2382 38.6257 59.9845 38.8705 59.6722 38.8705H2.47444C2.15998 38.8705 1.9043 38.6225 1.9043 38.3178V23.6941C1.9043 23.1845 1.47812 22.7713 0.952148 22.7713C0.426182 22.7713 0 23.1845 0 23.6941V43.7778C0 45.1002 1.10995 46.176 2.47432 46.176H24.1985L21.9602 51.2985H19.3223C17.5099 51.2985 16.0353 52.7275 16.0353 54.4841V56.0481C16.0353 56.8521 16.7102 57.5062 17.5398 57.5062H30.4375C30.8576 59.7325 32.8724 61.4257 35.2888 61.4257H43.0116C45.703 61.4257 47.8965 59.3255 47.9425 56.7273H60.8436C63.1354 56.7273 65 54.9196 65 52.6975C65 50.4761 63.1354 48.6689 60.8436 48.6689ZM6.167 8.72769C6.167 8.72523 6.16738 8.72301 6.16738 8.72055C6.16738 8.71809 6.167 8.71588 6.167 8.71342V3.51801C6.167 3.37909 6.26234 3.2569 6.39882 3.22122C11.5287 1.87693 15.8368 1.52305 19.5679 2.13878C23.6542 2.8132 27.1098 4.64856 30.1212 7.74491V34.7389H6.167V8.72769ZM1.9043 43.7778V40.6494C2.08774 40.6916 2.27792 40.7162 2.47444 40.7162H59.6722C59.8684 40.7162 60.0585 40.6916 60.2417 40.6495V43.7778C60.2417 44.0825 59.986 44.3303 59.6718 44.3303H2.47432C2.16011 44.3303 1.9043 44.0825 1.9043 43.7778ZM26.2666 46.176H35.8799L37.6312 50.1824H35.2888C34.0858 50.1824 32.9825 50.6025 32.1255 51.2985H24.0284L26.2666 46.176ZM17.9397 54.4841C17.9397 53.7452 18.56 53.1442 19.3224 53.1442H30.7279C30.4886 53.7054 30.3558 54.3198 30.3558 54.9638V55.6606H17.9397V54.4841ZM46.0403 56.6444C46.0403 58.263 44.6817 59.5799 43.0116 59.5799H35.2888C33.6187 59.5799 32.2601 58.263 32.2601 56.6444V54.9637C32.2601 53.345 33.6187 52.0281 35.2888 52.0281H43.0116C44.6817 52.0281 46.0403 53.345 46.0403 54.9637V56.6444ZM60.8436 54.8816H47.9426C47.897 52.2831 45.7033 50.1824 43.0116 50.1824H39.6993L37.9479 46.176H49.4076V46.4861C49.4076 48.7075 51.2723 50.5146 53.5641 50.5146H60.8436C62.0854 50.5146 63.0957 51.4939 63.0957 52.6975C63.0957 53.9019 62.0854 54.8816 60.8436 54.8816Z" fill="black"/>
<path d="M43.1106 54.8812H41.9231C41.3971 54.8812 40.9709 55.2944 40.9709 55.8041C40.9709 56.3137 41.3971 56.7269 41.9231 56.7269H43.1106C43.6366 56.7269 44.0628 56.3137 44.0628 55.8041C44.0628 55.2944 43.6366 54.8812 43.1106 54.8812Z" fill="black"/>
<path d="M15.7286 16.5164L16.1341 17.9081C16.2527 18.3148 16.6344 18.5803 17.0499 18.5803C17.1356 18.5803 17.2227 18.569 17.3092 18.5454C17.8152 18.4068 18.1097 17.8969 17.9668 17.4064L15.5627 9.15602C15.4295 8.69791 14.9937 8.37799 14.5026 8.37799H14.1567C13.6665 8.37799 13.2308 8.6973 13.0967 9.15528L10.6925 17.4064C10.5495 17.8969 10.844 18.4068 11.3501 18.5454C11.8556 18.6839 12.3822 18.3986 12.5252 17.9081L12.9307 16.5164H15.7286ZM14.3296 11.7154L15.1907 14.6706H13.4685L14.3296 11.7154Z" fill="black"/>
<path d="M24.6792 21.9413H22.4305L25.51 16.6108C25.6751 16.3251 25.6715 15.9759 25.5007 15.6933C25.3297 15.4107 25.0171 15.237 24.6792 15.237H20.8061C20.2801 15.237 19.854 15.6502 19.854 16.1599C19.854 16.6695 20.2801 17.0827 20.8061 17.0827H23.0548L19.9753 22.4132C19.8102 22.6989 19.8138 23.0481 19.9846 23.3308C20.1556 23.6133 20.4682 23.787 20.8061 23.787H24.6792C25.2052 23.787 25.6313 23.3738 25.6313 22.8642C25.6313 22.3545 25.2052 21.9413 24.6792 21.9413Z" fill="black"/>
<path d="M21.5179 29.7821H14.7702C14.2443 29.7821 13.8181 30.1953 13.8181 30.705C13.8181 31.2146 14.2443 31.6278 14.7702 31.6278H21.5179C22.0439 31.6278 22.4701 31.2146 22.4701 30.705C22.4701 30.1953 22.0439 29.7821 21.5179 29.7821Z" fill="black"/>
<path d="M40.6287 29.7821C40.1027 29.7821 39.6765 30.1953 39.6765 30.705C39.6765 31.2146 40.1027 31.6278 40.6287 31.6278H47.3764C47.9023 31.6278 48.3285 31.2146 48.3285 30.705C48.3285 30.1953 47.9023 29.7821 47.3764 29.7821H40.6287Z" fill="black"/>
<path d="M48.9434 15.5712C48.4401 15.3781 47.8737 15.5021 47.5 15.8877L43.7597 19.7499C43.3867 20.1351 43.2863 20.6995 43.5044 21.1878C43.7168 21.6631 44.1944 21.9704 44.7212 21.9704H48.4616C49.1949 21.9704 49.7917 21.3813 49.7917 20.6573V16.7951C49.7917 16.2493 49.4587 15.7689 48.9434 15.5712ZM47.8874 20.1247H46.0086L47.8874 18.1846V20.1247Z" fill="black"/>
<path d="M53.4616 24.4383V7.72747C53.4616 7.17794 53.1263 6.69424 52.6075 6.49527C52.1012 6.30111 51.5311 6.42612 51.1557 6.81384L34.9734 23.5247C34.5976 23.9126 34.4967 24.4809 34.7163 24.9725C34.9301 25.4509 35.4106 25.7601 35.9408 25.7601H52.1234C52.8612 25.7601 53.4616 25.1671 53.4616 24.4383ZM51.5573 23.9144H37.2078L38.7331 22.3393L38.8874 22.4985C39.0749 22.6921 39.328 22.7898 39.5819 22.7898C39.8154 22.7898 40.0496 22.7069 40.2333 22.5399C40.6169 22.191 40.6359 21.607 40.276 21.2353L40.0391 20.9907L42.1324 18.829L42.2868 18.9883C42.4743 19.1819 42.7275 19.2796 42.9814 19.2796C43.2148 19.2796 43.4491 19.1968 43.6328 19.0297C44.0163 18.6809 44.0353 18.0969 43.6754 17.7251L43.4384 17.4804L45.5317 15.3187L45.6861 15.4782C45.8736 15.6717 46.1267 15.7694 46.3807 15.7694C46.6141 15.7694 46.8483 15.6866 47.0321 15.5195C47.4156 15.1707 47.4346 14.5867 47.0747 14.215L46.8376 13.9701L48.931 11.8084L49.0855 11.968C49.273 12.1616 49.5262 12.2593 49.7801 12.2593C50.0135 12.2593 50.2478 12.1765 50.4315 12.0094C50.815 11.6605 50.834 11.0766 50.4741 10.7048L50.237 10.4598L51.5575 9.09612V23.9144H51.5573Z" fill="black"/>
</svg>
