<svg width="150" height="150" viewBox="0 0 242 243" fill="none" xmlns="http://www.w3.org/2000/svg">
<path d="M224.275 9.20947H17.7246C7.95102 9.20947 0 17.163 0 26.9396V182.964C0 192.741 7.95102 200.695 17.7246 200.695H93.3766L89.1099 215.632C87.3965 221.631 80.6801 226.699 74.4434 226.699H47.7383C45.7805 226.699 44.1934 228.286 44.1934 230.245C44.1934 232.204 45.7805 233.791 47.7383 233.791H194.262C196.219 233.791 197.807 232.204 197.807 230.245C197.807 228.286 196.219 226.699 194.262 226.699H167.557C161.32 226.699 154.604 221.631 152.89 215.632L148.623 200.695H224.275C234.049 200.695 242 192.741 242 182.964V26.9396C242 17.163 234.049 9.20947 224.275 9.20947ZM17.7246 16.3015H224.275C230.14 16.3015 234.91 21.074 234.91 26.9396V151.05H7.08984V26.9396C7.08984 21.074 11.8604 16.3015 17.7246 16.3015ZM146.073 217.581C147.046 220.987 148.979 224.117 151.514 226.699H90.4858C93.0206 224.117 94.9543 220.987 95.927 217.581L100.75 200.695H141.25L146.073 217.581ZM224.275 193.603H17.7246C11.8604 193.603 7.08984 188.83 7.08984 182.964V158.142H234.91V182.964C234.91 188.83 230.14 193.603 224.275 193.603Z" fill="white"/>
<path d="M17.7246 143.958H224.275C226.233 143.958 227.82 142.371 227.82 140.412V26.9396C227.82 24.9808 226.233 23.3936 224.275 23.3936H17.7246C15.7669 23.3936 14.1797 24.9808 14.1797 26.9396V76.5839C14.1797 78.5427 15.7669 80.1299 17.7246 80.1299C19.6824 80.1299 21.2695 78.5427 21.2695 76.5839V30.4856H220.73V136.866H21.2695V90.7679C21.2695 88.8091 19.6824 87.2219 17.7246 87.2219C15.7669 87.2219 14.1797 88.8091 14.1797 90.7679V140.412C14.1797 142.371 15.7669 143.958 17.7246 143.958Z" fill="white"/>
<path d="M121 165.234C115.136 165.234 110.365 170.007 110.365 175.872C110.365 181.738 115.136 186.51 121 186.51C126.864 186.51 131.635 181.738 131.635 175.872C131.635 170.007 126.864 165.234 121 165.234ZM121 179.418C119.045 179.418 117.455 177.828 117.455 175.872C117.455 173.917 119.045 172.326 121 172.326C122.955 172.326 124.545 173.917 124.545 175.872C124.545 177.828 122.955 179.418 121 179.418Z" fill="white"/>
</svg>
