<svg width="60" height="60" viewBox="0 0 100 100" fill="none" xmlns="http://www.w3.org/2000/svg">
<g clip-path="url(#clip0)">
<path d="M18.3197 95.549V4.45175C18.3197 2.80914 19.651 1.47781 21.2936 1.47781H83.7868C85.4286 1.47781 86.7607 2.80914 86.7607 4.45175V95.549C86.7607 97.1909 85.4294 98.5222 83.7868 98.5222H21.2929C19.651 98.5222 18.3197 97.1909 18.3197 95.549Z" fill="#C3E5AD"/>
<path d="M77.3148 4.26407V69.2513C77.3148 69.352 77.2759 69.4481 77.2026 69.519L53.6553 92.2897C53.5866 92.3569 53.4935 92.3943 53.3974 92.3943H15.9828C14.4455 92.3943 13.1973 91.1461 13.1973 89.6065V4.26407C13.1973 2.72446 14.4455 1.47858 15.9828 1.47858H74.5293C76.0689 1.47858 77.3148 2.72446 77.3148 4.26407Z" fill="#BEBEBE"/>
<path d="M77.3148 4.26407V69.2513C77.3148 69.3558 77.269 69.4572 77.2026 69.519L53.6552 92.2897C53.5881 92.3569 53.4882 92.3943 53.3974 92.3943H24.2752C22.7371 92.3943 21.489 91.1461 21.489 89.6065V4.26407C21.489 2.72446 22.7371 1.47858 24.2752 1.47858H74.5293C76.0689 1.47858 77.3148 2.72446 77.3148 4.26407Z" fill="#EBEBF0"/>
<path d="M77.2797 69.4092C77.2614 69.4504 77.2362 69.4878 77.2026 69.519L53.6553 92.2897C53.624 92.321 53.5866 92.3447 53.5469 92.3622V72.1672C53.5469 70.6429 54.7814 69.4092 56.305 69.4092H77.2797Z" fill="#BEBEBE"/>
<path d="M71.1899 17.2933L61.9804 11.4125C60.6895 10.5878 58.9683 10.9677 58.1428 12.2586C57.3189 13.5503 57.698 15.2715 58.9897 16.0962L64.6202 19.6919L58.9378 23.5021C58.3214 23.9156 57.9025 24.5442 57.7591 25.2721C57.6157 26.0007 57.7637 26.7407 58.1772 27.3572C58.6944 28.1285 59.5573 28.5886 60.4866 28.5886H60.4874C61.039 28.5886 61.573 28.4261 62.0323 28.1178L71.2418 21.9426C72.023 21.4185 72.4831 20.5449 72.4731 19.6042C72.4625 18.6635 71.9826 17.7999 71.1899 17.2933Z" fill="#C3E5AD"/>
<path d="M31.575 23.5021L25.8918 19.6919L31.5231 16.0962C32.814 15.2715 33.1939 13.5503 32.3692 12.2586C31.5445 10.9677 29.8233 10.5878 28.5316 11.4125L19.3229 17.2933C18.5302 17.7999 18.0504 18.6635 18.0397 19.6042C18.029 20.5449 18.489 21.4192 19.2703 21.9426L28.4797 28.1178C28.939 28.4261 29.4738 28.5886 30.0254 28.5886C30.9547 28.5886 31.8176 28.1285 32.3349 27.3572C32.7484 26.7407 32.8972 26.0007 32.753 25.2721C32.6095 24.5442 32.1914 23.9156 31.575 23.5021Z" fill="#C3E5AD"/>
<path d="M51.4237 11.528C50.8293 11.084 50.0969 10.8978 49.363 11.0039C48.6283 11.1099 47.979 11.496 47.535 12.0911L38.5262 24.1463C38.0821 24.7406 37.896 25.473 38.002 26.2077C38.1081 26.9425 38.4941 27.591 39.0885 28.0357C39.5729 28.3974 40.1474 28.5881 40.7501 28.5881C41.6229 28.5881 42.4561 28.1715 42.9779 27.4727L51.986 15.4175C52.4307 14.8224 52.6169 14.0907 52.5109 13.356C52.4048 12.6213 52.0188 11.9721 51.4237 11.528Z" fill="#C3E5AD"/>
<path d="M13.1973 36.7538H77.3148V64.3913H13.1973V36.7538Z" fill="#C3E5AD"/>
<path d="M13.1973 36.7538H21.489V64.3913H13.1973V36.7538Z" fill="#C3E5AD"/>
<path d="M86.7599 84.2995C87.5763 84.2995 88.2385 83.6372 88.2385 82.8209V4.45175C88.2385 1.99738 86.2419 0 83.7875 0C63.1569 0 37.8586 0 15.9828 0C13.6314 0 11.7188 1.91269 11.7188 4.26407V48.3521C11.7188 49.1699 12.381 49.8306 13.1973 49.8306C14.0137 49.8306 14.6759 49.1699 14.6759 48.3521V38.2332H52.626C53.4431 38.2332 54.1054 37.571 54.1054 36.7546C54.1054 35.9383 53.4431 35.276 52.626 35.276H14.6759V4.26407C14.6759 3.54233 15.2611 2.95715 15.9828 2.95715H74.5293C75.251 2.95715 75.8362 3.54233 75.8362 4.26407V35.276H58.5411C57.724 35.276 57.0625 35.9383 57.0625 36.7546C57.0625 37.571 57.724 38.2332 58.5411 38.2332H75.8362V62.9128H14.6759V54.2664C14.6759 53.45 14.0137 52.7878 13.1973 52.7878C12.381 52.7878 11.7188 53.45 11.7188 54.2664V89.6065C11.7188 91.9586 13.6314 93.8728 15.9828 93.8728H16.8404V95.5482C16.8404 98.0026 18.8377 100 21.2944 100H83.7875C86.2419 100 88.2385 98.0026 88.2385 95.5482V88.7352C88.2385 87.9189 87.5763 87.2566 86.7599 87.2566C85.9436 87.2566 85.2814 87.9189 85.2814 88.7352V95.5482C85.2814 96.3722 84.6115 97.0428 83.7875 97.0428H21.2944C20.4681 97.0428 19.7975 96.3722 19.7975 95.5482V93.8728H53.3974C54.2297 93.8728 54.6387 93.4105 55.2048 92.8474C59.3559 88.8344 75.6371 73.0896 78.2295 70.5818C78.5881 70.2347 78.7933 69.7502 78.7933 69.2513C78.7933 66.8663 78.7933 6.71616 78.7933 4.26407C78.7933 3.80859 78.7224 3.36914 78.5881 2.95715H83.7875C84.6115 2.95715 85.2814 3.62778 85.2814 4.45175V82.8209C85.2814 83.6372 85.9436 84.2995 86.7599 84.2995ZM55.0255 88.9069V72.1672C55.0255 71.4615 55.5992 70.8878 56.3049 70.8878H73.6595C38.4323 104.955 74.7223 69.8601 55.0255 88.9069ZM75.8362 67.9306H56.3049C53.9688 67.9306 52.0683 69.8311 52.0683 72.1672V90.9157C50.2342 90.9157 17.6552 90.9157 15.9828 90.9157C15.2611 90.9157 14.6759 90.3282 14.6759 89.6065V65.8699H75.8362V67.9306Z" fill="black"/>
<path d="M60.4874 30.0667C61.3327 30.0667 62.1521 29.8172 62.8563 29.3457L72.065 23.1705C74.6102 21.4645 74.5751 17.7002 71.9864 16.0469C71.9864 16.0469 71.9864 16.0469 71.9857 16.0469L62.777 10.1662C60.7994 8.90273 58.1612 9.48409 56.8978 11.4632C55.6343 13.4415 56.2157 16.0789 58.1948 17.3416L61.921 19.722L58.1146 22.274C54.6067 24.6254 56.3263 30.0674 60.4874 30.0667ZM59.7611 24.7299L65.4442 20.919C66.3277 20.3262 66.3147 19.0185 65.416 18.4448L59.7855 14.8491C59.1812 14.463 59.0035 13.6581 59.3888 13.0539C59.774 12.4519 60.5782 12.2711 61.1847 12.6579L70.3942 18.5387C71.1823 19.0422 71.1968 20.1919 70.4178 20.7146C60.8231 27.0576 61.1862 27.1095 60.4866 27.1095C59.2095 27.1095 58.6922 25.4463 59.7611 24.7299Z" fill="black"/>
<path d="M33.6151 11.4624C32.3525 9.4841 29.7157 8.90274 27.7359 10.1654L18.5272 16.0469C15.9401 17.6987 15.9012 21.463 18.4479 23.1705L27.6566 29.3457C28.3608 29.8172 29.1802 30.0667 30.0263 30.0667C34.195 30.0667 35.9009 24.6223 32.3982 22.274L28.5919 19.722L32.3189 17.3416C34.2972 16.0782 34.8786 13.4407 33.6151 11.4624ZM30.7274 14.8491L25.0962 18.4448C24.1989 19.0186 24.1837 20.3262 25.0687 20.9198C30.674 24.8222 31.1211 24.6353 31.3027 25.5585C31.5247 26.6846 30.2689 27.536 29.3038 26.889L20.0943 20.7146C19.3138 20.1912 19.3306 19.0422 20.1187 18.5394C29.6929 12.513 29.3175 12.4542 30.0255 12.4542C31.3248 12.4542 31.8169 14.1533 30.7274 14.8491Z" fill="black"/>
<path d="M46.3508 11.2053L37.3421 23.2613C36.6615 24.1722 36.3762 25.2937 36.5387 26.4191C37.0781 30.1445 41.8907 31.398 44.162 28.3577L53.1708 16.3017C53.8513 15.3908 54.1366 14.2693 53.9741 13.1439C53.4279 9.37118 48.5962 8.19931 46.3508 11.2053ZM41.793 26.5877C41.1011 27.5139 39.6301 27.1347 39.4653 25.9956C39.3196 24.9901 39.5965 25.3998 48.719 12.9753C49.4072 12.056 50.8812 12.4191 51.0467 13.5674C51.1925 14.5729 50.917 14.1624 41.793 26.5877Z" fill="black"/>
<path d="M33.1017 45.649C34.9419 45.649 35.0067 47.0345 35.0281 47.5975C35.0716 48.3772 35.8078 48.6153 36.7165 48.6153C37.8639 48.6153 38.4056 48.3116 38.4056 47.0131C38.4056 44.2635 36.0672 42.7048 32.9712 42.7048C30.1353 42.7048 27.7756 44.0903 27.7756 47.8142V53.5515C27.7756 57.2754 30.1353 58.6609 32.9712 58.6609C36.0672 58.6609 38.4056 57.0152 38.4056 54.1359C38.4056 52.8366 37.8639 52.5337 36.6951 52.5337C35.8292 52.5337 35.0929 52.7504 35.0281 53.5515C34.9632 54.3961 34.8549 55.7167 33.123 55.7167C31.8672 55.7167 31.1523 55.024 31.1523 53.5515V47.8142C31.1531 46.3417 31.8672 45.649 33.1017 45.649Z" fill="black"/>
<path d="M44.9646 55.7159C42.9512 55.7159 42.3012 54.1145 41.2842 54.1145C40.4617 54.1145 39.8117 55.1964 39.8117 55.9326C39.8117 57.3616 42.1936 58.7471 45.0294 58.7471C48.1682 58.7471 50.4417 57.0587 50.4417 53.9413C50.4417 48.4856 43.5791 48.8968 43.5791 46.7316C43.5791 46.0609 44.207 45.433 45.7436 45.433C47.5189 45.433 47.9301 46.2555 48.7099 46.2555C49.6628 46.2555 50.0526 45.0645 50.0526 44.4801C50.0526 42.7917 46.8918 42.5751 45.7436 42.5751C43.0374 42.5751 40.2016 43.8087 40.2016 47.0566C40.2016 52.1225 47.0642 51.6678 47.0642 54.2877C47.065 55.3268 45.9602 55.7159 44.9646 55.7159Z" fill="black"/>
<path d="M56.9572 55.7159C54.9438 55.7159 54.2946 54.1145 53.2768 54.1145C52.4543 54.1145 51.8043 55.1964 51.8043 55.9326C51.8043 57.3616 54.1862 58.7471 57.0228 58.7471C60.1616 58.7471 62.4351 57.0587 62.4351 53.9413C62.4351 48.4856 55.5717 48.8968 55.5717 46.7316C55.5717 46.0609 56.1996 45.433 57.7369 45.433C59.5123 45.433 59.9235 46.2555 60.7025 46.2555C61.6554 46.2555 62.0453 45.0645 62.0453 44.4801C62.0453 42.7917 58.8844 42.5751 57.7369 42.5751C55.03 42.5751 52.1942 43.8087 52.1942 47.0566C52.1942 52.1225 59.0576 51.6678 59.0576 54.2877C59.0576 55.3268 57.9536 55.7159 56.9572 55.7159Z" fill="black"/>
</g>
<defs>
<clipPath id="clip0">
<rect width="100" height="100" fill="white"/>
</clipPath>
</defs>
</svg>
