<svg width="60" height="60" viewBox="0 0 100 100" fill="none" xmlns="http://www.w3.org/2000/svg">
<g clip-path="url(#clip0)">
<path d="M83.516 41.742C83.516 40.7703 82.7283 39.9825 81.7565 39.9825H73.5935C72.6218 39.9825 71.8341 40.7703 71.8341 41.742V52.1379H83.5162V41.742H83.516Z" fill="#C3E5AD"/>
<path d="M28.1661 41.742C28.1661 40.7703 27.3783 39.9825 26.4066 39.9825H18.2436C17.2719 39.9825 16.4842 40.7703 16.4842 41.742V49.9462H28.1663V41.742H28.1661Z" fill="#C3E5AD"/>
<path d="M53.2254 36.6942C53.1326 35.9498 52.5 35.3912 51.7499 35.3912H48.4453C47.6953 35.3912 47.0627 35.9498 46.9699 36.6942L45.6155 47.5625V51.383H54.5801V47.5625L53.2254 36.6942Z" fill="#C3E5AD"/>
<path d="M97.8728 85.0862C98.113 86.0003 98.2263 86.9144 98.2263 87.8148C98.2263 92.7564 94.7867 97.2292 89.7182 98.3035C84.7258 99.3621 79.6787 96.7566 77.6494 92.0728L73.2605 81.9435H73.2566C71.1921 84.5608 67.9967 86.2464 64.4145 86.2464C60.8304 86.2464 57.6349 84.5608 55.5704 81.9435H44.4294C42.3648 84.5608 39.1694 86.2464 35.5853 86.2464C32.0031 86.2464 28.8077 84.5608 26.7432 81.9435H26.7393L22.3504 92.0728C20.6238 96.0573 16.7135 98.5379 12.5102 98.5379C11.7739 98.5379 11.0277 98.4617 10.2816 98.3035C4.28921 97.0339 0.574226 91.0122 2.12702 85.0862L11.4067 49.6845C12.1274 46.9344 14.6119 45.0183 17.4557 45.0183H28.1651C28.9952 45.0183 29.8077 45.1824 30.5597 45.4929C31.3117 45.8054 32.0012 46.2625 32.5871 46.8485C33.0442 47.3055 33.6633 47.5633 34.3099 47.5633H65.6899C66.0122 47.5633 66.3286 47.4989 66.6216 47.3778C66.9146 47.2547 67.1841 47.077 67.4127 46.8485C68.5846 45.6765 70.1745 45.0183 71.8347 45.0183H82.5441C85.3879 45.0183 87.8724 46.9344 88.5931 49.6845L97.8728 85.0862Z" fill="#C3E5AD"/>
<path d="M17.9784 96.1087C11.986 94.8391 8.271 88.8174 9.82379 82.8914L19.1034 47.4897C19.3484 46.5553 19.7972 45.7178 20.3941 45.0183H17.4557C14.6119 45.0183 12.1274 46.9344 11.4067 49.6845L2.12702 85.0862C0.574227 91.0122 4.28921 97.0339 10.2816 98.3035C11.0277 98.4617 11.7739 98.5379 12.5102 98.5379C14.9152 98.5379 17.2272 97.7236 19.0862 96.2823C18.719 96.2434 18.3468 96.1868 17.9784 96.1087Z" fill="#C3E5AD"/>
<path d="M35.5861 80.3858C38.5692 80.3858 40.9874 77.9675 40.9874 74.9844C40.9874 72.0013 38.5692 69.583 35.5861 69.583C32.603 69.583 30.1847 72.0013 30.1847 74.9844C30.1847 77.9675 32.603 80.3858 35.5861 80.3858Z" fill="#C3E5AD"/>
<path d="M64.4139 80.3858C67.397 80.3858 69.8153 77.9675 69.8153 74.9844C69.8153 72.0013 67.397 69.583 64.4139 69.583C61.4308 69.583 59.0125 72.0013 59.0125 74.9844C59.0125 77.9675 61.4308 80.3858 64.4139 80.3858Z" fill="#C3E5AD"/>
<path d="M52.5758 72.9031H47.424C46.5937 72.9031 45.9206 72.23 45.9206 71.3997V69.0617C45.9206 68.2314 46.5937 67.5583 47.424 67.5583H52.5758C53.4061 67.5583 54.0791 68.2314 54.0791 69.0617V71.3997C54.0791 72.23 53.4061 72.9031 52.5758 72.9031Z" fill="#C3E5AD"/>
<path d="M27.6666 58.2908H24.5153V55.1395C24.5153 54.696 24.1558 54.3362 23.712 54.3362H19.4913C19.0478 54.3362 18.688 54.6958 18.688 55.1395V58.2908H15.5367C15.0931 58.2908 14.7333 58.6504 14.7333 59.0942V63.3148C14.7333 63.7584 15.0929 64.1182 15.5367 64.1182H18.6882V67.2695C18.6882 67.7131 19.0478 68.0728 19.4915 68.0728H23.7122C24.1558 68.0728 24.5155 67.7133 24.5155 67.2695V64.1182H27.6668C28.1104 64.1182 28.4702 63.7586 28.4702 63.3148V59.0942C28.47 58.6504 28.1102 58.2908 27.6666 58.2908Z" fill="#C3E5AD"/>
<path d="M35.5861 81.8507C39.3722 81.8507 42.4524 78.7705 42.4524 74.9844C42.4524 71.1984 39.3722 68.1182 35.5861 68.1182C31.8 68.1182 28.7198 71.1984 28.7198 74.9844C28.7198 78.7705 31.8 81.8507 35.5861 81.8507ZM35.5861 71.048C37.7567 71.048 39.5226 72.8138 39.5226 74.9844C39.5226 77.155 37.7567 78.9209 35.5861 78.9209C33.4155 78.9209 31.6496 77.155 31.6496 74.9844C31.6496 72.8138 33.4155 71.048 35.5861 71.048Z" fill="black"/>
<path d="M99.2902 84.7155L92.7267 59.6765C92.5216 58.894 91.7208 58.426 90.9382 58.6309C90.1555 58.836 89.6875 59.6368 89.8926 60.4194L96.4562 85.4585C97.1048 87.9332 96.7224 90.4952 95.3788 92.6724C94.0354 94.8496 91.9171 96.3407 89.4143 96.8708C85.12 97.7806 80.7388 95.5174 78.9938 91.4909L78.8229 91.0966C78.5012 90.3543 77.6387 90.0131 76.8963 90.335C76.154 90.6567 75.813 91.5192 76.1347 92.2616L76.3056 92.656C78.2617 97.1706 82.7365 100 87.5125 100C88.3434 100 89.1838 99.9147 90.0213 99.7373C93.3156 99.0394 96.1038 97.0769 97.872 94.2111C99.6403 91.3454 100.144 87.9728 99.2902 84.7155Z" fill="black"/>
<path d="M4.85767 74.6684C4.98228 74.701 5.10709 74.7166 5.23014 74.7166C5.87997 74.7166 6.47374 74.2809 6.64621 73.6228L12.824 50.0562C13.3756 47.952 15.2799 46.4826 17.4552 46.4826H28.166C29.4449 46.4826 30.6471 46.9806 31.5514 47.8848C32.2882 48.6215 33.2679 49.0274 34.3097 49.0274H65.6898C66.7317 49.0274 67.7114 48.6215 68.4481 47.8848C69.3524 46.9806 70.5546 46.4826 71.8336 46.4826H82.5443C84.7196 46.4826 86.624 47.952 87.1756 50.0562L88.2963 54.3313C88.5014 55.1138 89.302 55.5821 90.0849 55.3769C90.8675 55.1718 91.3355 54.371 91.1304 53.5883L90.0097 49.3132C89.335 46.7396 87.4043 44.7561 84.9806 43.9485V41.742C84.9806 39.964 83.534 38.5174 81.7562 38.5174H73.5932C71.8152 38.5174 70.3689 39.964 70.3689 41.742V43.6919C68.8657 43.9792 67.4827 44.7071 66.3768 45.813C66.1934 45.9964 65.9494 46.0976 65.69 46.0976H55.8736L54.6792 36.5129C54.4955 35.0382 53.236 33.9261 51.75 33.9261H51.5627V12.0368C51.5627 9.95525 53.2561 8.26183 55.3377 8.26183C57.4192 8.26183 59.1126 9.95525 59.1126 12.0368V24.3993C59.1126 27.754 61.8418 30.4832 65.1964 30.4832C68.5511 30.4832 71.2803 27.754 71.2803 24.3993V1.4649C71.2803 0.655884 70.6244 0 69.8154 0C69.0063 0 68.3505 0.655884 68.3505 1.4649V24.3993C68.3505 26.1385 66.9356 27.5534 65.1964 27.5534C63.4573 27.5534 62.0424 26.1385 62.0424 24.3993V12.0368C62.0424 8.33976 59.0347 5.33203 55.3377 5.33203C51.6407 5.33203 48.6329 8.33976 48.6329 12.0368V33.9261H48.4456C46.9596 33.9261 45.7002 35.038 45.5164 36.5129L44.322 46.0974H34.3097C34.0504 46.0974 33.8066 45.9962 33.623 45.8128C32.5169 44.7067 31.134 43.979 29.6309 43.6917V41.7418C29.6309 39.9638 28.1843 38.5173 26.4065 38.5173H18.2435C16.4655 38.5173 15.0192 39.9638 15.0192 41.7418V43.9483C12.5955 44.756 10.6647 46.7394 9.99009 49.313L3.81212 72.8799C3.60704 73.6625 4.07522 74.4631 4.85767 74.6684ZM73.5932 41.4472H81.7562C81.9187 41.4472 82.0508 41.5795 82.0508 41.742V43.5528H73.2985V41.742C73.2987 41.5795 73.4307 41.4472 73.5932 41.4472ZM48.4234 36.8752C48.4247 36.8641 48.4341 36.8559 48.4452 36.8559H51.7498C51.761 36.8559 51.7704 36.8641 51.7717 36.8752L52.921 46.0976H47.2741L48.4234 36.8752ZM18.2435 41.4472H26.4065C26.569 41.4472 26.7011 41.5795 26.7011 41.742V43.5528H17.9488V41.742C17.9488 41.5795 18.081 41.4472 18.2435 41.4472Z" fill="black"/>
<path d="M64.4139 81.8507C68.2 81.8507 71.2802 78.7705 71.2802 74.9844C71.2802 71.1984 68.2 68.1182 64.4139 68.1182C60.6279 68.1182 57.5477 71.1984 57.5477 74.9844C57.5477 78.7705 60.6279 81.8507 64.4139 81.8507ZM64.4139 71.048C66.5845 71.048 68.3504 72.8138 68.3504 74.9844C68.3504 77.155 66.5845 78.9209 64.4139 78.9209C62.2434 78.9209 60.4775 77.155 60.4775 74.9844C60.4775 72.8138 62.2434 71.048 64.4139 71.048Z" fill="black"/>
<path d="M76.3247 85.3303L74.9411 82.1372C75.7687 80.9167 76.3964 79.5373 76.7671 78.0373C76.9613 77.2519 76.482 76.4577 75.6966 76.2636C74.9112 76.0692 74.1171 76.5487 73.9229 77.3341C72.8393 81.7185 68.929 84.7807 64.4138 84.7807C61.3978 84.7807 58.5924 83.4162 56.717 81.0372C55.8513 79.9393 55.2421 78.6933 54.9062 77.3341C54.712 76.5487 53.9181 76.0692 53.1325 76.2638C52.3471 76.4579 51.8678 77.2521 52.0621 78.0375C52.2723 78.8875 52.5668 79.7024 52.9389 80.4791H47.0619C47.4348 79.7018 47.7295 78.8869 47.9395 78.0373C48.1337 77.2519 47.6545 76.4579 46.869 76.2636C46.0834 76.0692 45.2896 76.5487 45.0953 77.3341C44.7597 78.6912 44.1499 79.9369 43.2827 81.037C41.4072 83.416 38.6021 84.7805 35.5859 84.7805C31.0707 84.7805 27.1604 81.7184 26.0768 77.3339C25.8828 76.5485 25.089 76.069 24.3031 76.2634C23.5177 76.4575 23.0384 77.2515 23.2325 78.0371C23.6032 79.5373 24.231 80.9167 25.0586 82.137L21.0057 91.4907C19.2609 95.5174 14.8787 97.7798 10.5854 96.8706C8.08255 96.3405 5.96431 94.8494 4.6209 92.6722C3.27749 90.4949 2.89486 87.9329 3.54351 85.4582L5.05939 79.6756C5.26448 78.893 4.79649 78.0923 4.01384 77.8871C3.2312 77.6818 2.43058 78.1502 2.2253 78.9326L0.709424 84.7152C-0.144514 87.9726 0.359216 91.3448 2.12745 94.2105C3.89568 97.0762 6.68387 99.0388 9.97813 99.7367C10.8161 99.914 11.6557 99.9998 12.487 99.9998C17.2626 99.9996 21.7379 97.1698 23.6939 92.6554L27.2008 84.5617C29.4589 86.5393 32.4061 87.7101 35.5857 87.7101C39.2622 87.7101 42.6965 86.1512 45.1175 83.4086H54.8818C57.3027 86.1512 60.7371 87.7101 64.4136 87.7101C67.5932 87.7101 70.5404 86.5393 72.7984 84.5617L73.6362 86.4948C73.9579 87.2372 74.8206 87.5782 75.5628 87.2565C76.3054 86.935 76.6464 86.0725 76.3247 85.3303Z" fill="black"/>
<path d="M47.424 74.368H52.5758C54.2124 74.368 55.5439 73.0365 55.5439 71.3997V69.0619C55.5439 67.4253 54.2124 66.0936 52.5758 66.0936H47.424C45.7875 66.0936 44.456 67.4251 44.456 69.0619V71.3997C44.456 73.0363 45.7875 74.368 47.424 74.368ZM47.3858 69.0617C47.3858 69.0406 47.4029 69.0232 47.424 69.0232H52.5758C52.5969 69.0232 52.6141 69.0404 52.6141 69.0617V71.3995C52.6141 71.4206 52.5969 71.438 52.5758 71.438H47.424C47.4029 71.438 47.3858 71.4208 47.3858 71.3995V69.0617Z" fill="black"/>
<path d="M44.9447 60.7698C44.9447 59.9608 44.2888 59.3049 43.4799 59.3049H42.434C41.625 59.3049 40.9691 59.9608 40.9691 60.7698C40.9691 61.5788 41.625 62.2346 42.434 62.2346H43.4799C44.2888 62.2346 44.9447 61.5788 44.9447 60.7698Z" fill="black"/>
<path d="M57.5659 62.2346C58.3749 62.2346 59.0308 61.5788 59.0308 60.7698C59.0308 59.9608 58.3749 59.3049 57.5659 59.3049H56.52C55.711 59.3049 55.0552 59.9608 55.0552 60.7698C55.0552 61.5788 55.711 62.2346 56.52 62.2346H57.5659Z" fill="black"/>
<path d="M63.9044 56.6847C64.7134 56.6847 65.3693 56.0289 65.3693 55.2198C65.3693 54.4108 64.7134 53.7549 63.9044 53.7549H36.2908C35.4818 53.7549 34.8259 54.4108 34.8259 55.2198C34.8259 56.0289 35.4818 56.6847 36.2908 56.6847H63.9044Z" fill="black"/>
<path d="M19.4914 69.5375H23.7118C24.9627 69.5375 25.9801 68.5201 25.9801 67.2693V65.5829H27.6665C28.9171 65.5829 29.9347 64.5655 29.9347 63.3146V59.0942C29.9347 57.8435 28.9173 56.8259 27.6665 56.8259H25.9801V55.1395C25.9801 53.8889 24.9627 52.8713 23.7118 52.8713H19.4914C18.2407 52.8713 17.2231 53.8887 17.2231 55.1395V56.8259H15.5367C14.2861 56.8259 13.2685 57.8433 13.2685 59.0942V63.3146C13.2685 64.5653 14.2859 65.5829 15.5367 65.5829H17.2231V67.2693C17.2231 68.5201 18.2407 69.5375 19.4914 69.5375ZM16.1985 62.6531V59.7557H18.6882C19.4972 59.7557 20.1531 59.0998 20.1531 58.2908V55.8011H23.0505V58.2908C23.0505 59.0998 23.7064 59.7557 24.5154 59.7557H27.0051V62.6531H24.5154C23.7064 62.6531 23.0505 63.309 23.0505 64.118V66.6077H20.1531V64.118C20.1531 63.309 19.4972 62.6531 18.6882 62.6531H16.1985Z" fill="black"/>
<path d="M80.196 55.9464V55.6085C80.196 54.7995 79.5402 54.1436 78.7312 54.1436C77.9222 54.1436 77.2664 54.7995 77.2664 55.6085V55.9464C77.2664 56.7553 77.9222 57.4112 78.7312 57.4112C79.5402 57.4112 80.196 56.7553 80.196 55.9464Z" fill="black"/>
<path d="M83.516 58.701C82.707 58.701 82.0511 59.3568 82.0511 60.1658C82.0511 60.9748 82.707 61.6307 83.516 61.6307H83.8539C84.6628 61.6307 85.3187 60.9748 85.3187 60.1658C85.3187 59.3568 84.6628 58.701 83.8539 58.701H83.516Z" fill="black"/>
<path d="M79.2964 66.7531C80.1054 66.7531 80.7613 66.0973 80.7613 65.2883V64.9504C80.7613 64.1414 80.1054 63.4855 79.2964 63.4855C78.4875 63.4855 77.8316 64.1414 77.8316 64.9504V65.2883C77.8316 66.0973 78.4875 66.7531 79.2964 66.7531Z" fill="black"/>
<path d="M74.174 59.2662C73.365 59.2662 72.7092 59.9221 72.7092 60.7311C72.7092 61.5401 73.365 62.1959 74.174 62.1959H74.5119C75.3209 62.1959 75.9767 61.5401 75.9767 60.7311C75.9767 59.9221 75.3209 59.2662 74.5119 59.2662H74.174Z" fill="black"/>
</g>
<defs>
<clipPath id="clip0">
<rect width="100" height="100" fill="white"/>
</clipPath>
</defs>
</svg>
