<svg width="60" height="60" viewBox="0 0 100 100" fill="none" xmlns="http://www.w3.org/2000/svg">
<g clip-path="url(#clip0)">
<path d="M82.7439 98.34H17.4476C15.0932 98.34 13.1835 96.4311 13.1835 94.0759V5.53361C13.1835 3.17841 15.0932 1.26953 17.4476 1.26953H69.1712L87.008 18.2289V94.0759C87.008 96.4311 85.0991 98.34 82.7439 98.34Z" fill="#F4F4F4"/>
<path d="M69.1712 1.26953H61.5029L79.3397 18.2289V94.0759C79.3397 96.4304 77.43 98.34 75.0748 98.34H82.7439C85.0991 98.34 87.008 96.4304 87.008 94.0759V18.2289L69.1712 1.26953Z" fill="#C3E5AD"/>
<path d="M79.3397 10.9375L69.1712 1.26953H17.4476C15.0932 1.26953 13.1835 3.17841 13.1835 5.53361V10.9375H79.3397Z" fill="#C3E5AD"/>
<path d="M63.5727 10.9375H79.3397L69.1712 1.26953H63.5727V10.9375Z" fill="#C3E5AD"/>
<path d="M69.1712 1.26953V13.9649C69.1712 16.3201 71.0808 18.2289 73.436 18.2289H87.008L69.1712 1.26953Z" fill="#C3E5AD"/>
<path d="M13.1835 71.3289V94.076C13.1835 96.4304 15.0924 98.34 17.4476 98.34H82.7439C85.0983 98.34 87.008 96.4304 87.008 94.076V71.3289H13.1835Z" fill="#C3E5AD"/>
<path d="M79.3397 94.076C79.3397 96.4312 77.43 98.34 75.0748 98.34H82.7439C82.8179 98.34 82.8904 98.3378 82.9636 98.3347C83.2543 98.3202 83.5374 98.276 83.8097 98.2058C83.9463 98.1707 84.0798 98.1295 84.2103 98.0814C84.3407 98.0333 84.4689 97.9792 84.5933 97.9197C85.0282 97.7099 85.4218 97.4291 85.7598 97.0911C85.8559 96.995 85.9475 96.8935 86.0345 96.7882C86.078 96.7356 86.1207 96.6822 86.1611 96.6272C86.4068 96.2992 86.6059 95.9337 86.7501 95.5423C86.7974 95.4111 86.8394 95.2776 86.8745 95.1418C86.9622 94.8008 87.0088 94.4437 87.0088 94.076V71.3289H79.3397V94.076Z" fill="#C3E5AD"/>
<path d="M27.7748 79.1879C27.2155 79.1879 26.7624 79.6411 26.7624 80.2011V89.4655C26.7624 90.0247 27.2155 90.4779 27.7748 90.4779C28.334 90.4779 28.788 90.0247 28.788 89.4655V86.0155H35.1967V89.4686C35.1967 90.0278 35.6499 90.4817 36.2091 90.4817C36.7691 90.4817 37.2223 90.0278 37.2223 89.4686V80.2042C37.2223 79.6449 36.7691 79.191 36.2091 79.191C35.6499 79.191 35.1967 79.6449 35.1967 80.2042V83.9891H28.788V80.2011C28.788 79.6411 28.334 79.1879 27.7748 79.1879Z" fill="black"/>
<path d="M44.1108 90.4779C44.6701 90.4779 45.124 90.0247 45.124 89.4647V81.1304H48.204C48.7404 81.1304 49.1752 80.6955 49.1752 80.1592C49.1752 79.6228 48.7404 79.1879 48.204 79.1879H40.0184C39.4821 79.1879 39.0472 79.6228 39.0472 80.1592C39.0472 80.6955 39.4821 81.1304 40.0184 81.1304H43.0984V89.4647C43.0984 90.0247 43.5516 90.4779 44.1108 90.4779Z" fill="black"/>
<path d="M61.2885 90.4779C61.8477 90.4779 62.3009 90.0247 62.3009 89.4648V80.2004C62.3009 79.6411 61.8477 79.1872 61.2885 79.1872C60.495 79.1872 60.6087 79.5839 56.6506 84.2562C52.8267 79.7418 52.8153 79.1872 52.0126 79.1872C51.4534 79.1872 51.0002 79.6411 51.0002 80.2004V89.4648C51.0002 90.024 51.4534 90.4779 52.0126 90.4779C52.5719 90.4779 53.0258 90.0247 53.0258 89.4648V82.9294C55.8296 86.1544 55.8273 86.7746 56.6506 86.7662C57.473 86.7746 57.4684 86.1582 60.2761 82.9294V89.4648C60.2753 90.0247 60.7285 90.4779 61.2885 90.4779Z" fill="black"/>
<path d="M65.6426 79.1879C65.0833 79.1879 64.6302 79.6411 64.6302 80.2011V89.4655C64.6302 90.0247 65.0833 90.4779 65.6426 90.4779H72.4587C72.995 90.4779 73.4299 90.0431 73.4299 89.5067C73.4299 88.9704 72.995 88.5355 72.4587 88.5355H66.6558V80.2011C66.6558 79.6411 66.2018 79.1879 65.6426 79.1879Z" fill="black"/>
<path d="M87.008 25.811C87.8174 25.811 88.4728 25.1549 88.4728 24.3462V18.2396C88.4759 17.8368 88.3133 17.45 88.0173 17.1677L70.1836 0.210569C69.9051 -0.0541716 69.5427 -0.196842 69.1635 -0.195316H17.4476C14.2913 -0.195316 11.7187 2.37274 11.7187 5.53361V94.0759C11.7187 97.2139 14.2638 99.8049 17.4476 99.8049H82.7439C85.8666 99.8049 88.4728 97.2696 88.4728 94.0759V29.815C88.4728 29.0062 87.8167 28.3501 87.008 28.3501C86.1985 28.3501 85.5431 29.0062 85.5431 29.815V69.864H29.4967C28.6872 69.864 28.0319 70.5201 28.0319 71.3289C28.0319 72.1376 28.6872 72.7937 29.4967 72.7937H85.5431V94.0759C85.5431 95.6194 84.2873 96.8752 82.7439 96.8752H17.4476C15.9042 96.8752 14.6484 95.6194 14.6484 94.0759V72.7937H24.0279C24.8367 72.7937 25.4928 72.1376 25.4928 71.3289C25.4928 70.5201 24.8367 69.864 24.0279 69.864H14.6484V12.4024H67.7063V13.9649C67.7063 17.1242 70.2767 19.6938 73.4352 19.6938H85.5431V24.3462C85.5431 25.1549 86.1992 25.811 87.008 25.811ZM14.6484 9.47267V5.53361C14.6484 3.99018 15.9042 2.73438 17.4476 2.73438H67.7063V9.47267H14.6484ZM73.436 16.7649C71.8918 16.7649 70.636 15.5083 70.636 13.9649V4.68369L83.342 16.7649H73.436Z" fill="black"/>
</g>
<defs>
<clipPath id="clip0">
<rect width="100" height="100" fill="white"/>
</clipPath>
</defs>
</svg>
