<svg width="60" height="60" viewBox="0 0 100 100" fill="none" xmlns="http://www.w3.org/2000/svg">
<g clip-path="url(#clip0)">
<path d="M82.7431 98.34H17.4476C15.0932 98.34 13.1835 96.4304 13.1835 94.0759V5.53437C13.1835 3.17917 15.0932 1.26953 17.4476 1.26953H69.1712L87.008 18.2289V94.0752C87.008 96.4304 85.0983 98.34 82.7431 98.34Z" fill="#F4F4F4"/>
<path d="M69.1712 1.26953H61.5021L79.3389 18.2289V94.0752C79.3389 96.4304 77.43 98.34 75.0748 98.34H82.7431C85.0983 98.34 87.008 96.4304 87.008 94.0752V18.2289L69.1712 1.26953Z" fill="#E8E8E8"/>
<path d="M79.3389 10.9375L69.1712 1.26953H17.4476C15.0932 1.26953 13.1835 3.17917 13.1835 5.53437V10.9375H79.3389Z" fill="#C3E5AD"/>
<path d="M63.572 10.9375H79.3389L69.1712 1.26953H63.572V10.9375Z" fill="#C3E5AD"/>
<path d="M69.1712 1.26953V13.9649C69.1712 16.3201 71.0801 18.2289 73.4353 18.2289H87.008L69.1712 1.26953Z" fill="#DEDCDD"/>
<path d="M13.1835 71.3288V94.0751C13.1835 96.4303 15.0924 98.34 17.4476 98.34H82.7431C85.0983 98.34 87.0072 96.4303 87.0072 94.0751V71.3288H13.1835Z" fill="#C3E5AD"/>
<path d="M79.3389 94.0759C79.3389 96.4303 77.43 98.34 75.0748 98.34H82.7431C82.8171 98.34 82.8904 98.3377 82.9629 98.3346C83.2535 98.3194 83.5366 98.2759 83.809 98.2057C83.9455 98.1706 84.079 98.1286 84.2095 98.0813C84.3407 98.0333 84.4681 97.9791 84.5925 97.9196C85.0274 97.7098 85.4211 97.429 85.759 97.091C85.8559 96.9942 85.9475 96.8934 86.0345 96.7882C86.0779 96.7355 86.1199 96.6813 86.1611 96.6272C86.406 96.2984 86.6059 95.9337 86.7493 95.5415C86.7974 95.4111 86.8386 95.2775 86.8737 95.141C86.9614 94.8007 87.008 94.4436 87.008 94.0759V71.3288H79.3389V94.0759Z" fill="#C3E5AD"/>
<path d="M87.008 25.8111C87.8167 25.8111 88.4728 25.1557 88.4728 24.3462V18.2389C88.4728 18.0291 88.4415 17.8429 88.3393 17.6178C88.2638 17.4546 88.157 17.3005 88.0173 17.1677C84.5872 13.9061 73.5047 3.36916 70.1805 0.208297C69.7586 -0.192247 69.2513 -0.196062 69.2711 -0.191484C69.1758 -0.198351 71.5927 -0.193773 17.4476 -0.195299C14.3058 -0.195299 11.7187 2.3575 11.7187 5.53439V94.076C11.7187 97.2177 14.2722 99.8049 17.4476 99.8049H82.7431C85.9025 99.8049 88.472 97.2345 88.472 94.076V29.815C88.472 29.0063 87.8167 28.3501 87.0072 28.3501C86.1985 28.3501 85.5424 29.0063 85.5424 29.815V69.864H29.4967C28.6873 69.864 28.0319 70.5202 28.0319 71.3289C28.0319 72.1384 28.6873 72.7937 29.4967 72.7937H85.5431V94.076C85.5431 95.6194 84.2873 96.8752 82.7431 96.8752H17.4476C15.9042 96.8752 14.6484 95.6194 14.6484 94.076V72.7937H24.028C24.8367 72.7937 25.4928 72.1384 25.4928 71.3289C25.4928 70.5202 24.8367 69.864 24.028 69.864H14.6484V12.4024H67.7063V13.9649C67.7063 17.1242 70.2767 19.6946 73.4352 19.6946H85.5431V24.3462C85.5431 25.1557 86.1985 25.8111 87.008 25.8111ZM14.6484 9.47345V5.53439C14.6484 3.99096 15.9042 2.73516 17.4476 2.73516H67.7063V9.47345H14.6484ZM73.4352 16.7649C71.8918 16.7649 70.636 15.5091 70.636 13.9649V4.68371L83.3413 16.7649H73.4352Z" fill="black"/>
<path d="M43.5486 91.5155C46.2891 91.5155 48.5115 89.3365 48.5115 86.6479V79.5091C48.5115 78.8659 47.9897 78.3441 47.3473 78.3441C46.7041 78.3441 46.1822 78.8659 46.1822 79.5091V86.6479C46.1822 89.6516 41.8915 90.3345 41.0293 87.359C40.889 86.8753 40.4434 86.5213 39.9147 86.5213C39.138 86.5213 38.5826 87.2781 38.8039 88.0197C39.4165 90.0735 41.3162 91.5155 43.5486 91.5155Z" fill="black"/>
<path d="M56.2637 89.2824C54.9881 89.2824 53.7361 88.8093 52.6268 88.2463C51.8784 87.8648 50.9911 88.4126 50.9911 89.2511C50.9911 89.6745 51.2245 90.0438 51.5701 90.2368C55.9189 92.65 61.4365 91.5117 61.4365 87.6214C61.4365 84.739 58.6113 84.147 56.1867 83.7083C54.5807 83.4176 53.4958 83.2689 53.4905 82.2114C53.4866 81.3218 54.2595 80.3865 56.2058 80.3865C57.5073 80.3865 58.6479 80.8046 59.6535 81.3478C60.3897 81.7483 61.3068 81.2173 61.3068 80.3621C61.3068 79.934 61.0672 79.5617 60.714 79.3733C55.5504 76.6198 51.1673 78.9064 51.1612 82.3083C51.1528 87.4299 59.095 85.222 59.1164 87.6962C59.1278 89.0336 57.1793 89.2824 56.2637 89.2824Z" fill="black"/>
</g>
<defs>
<clipPath id="clip0">
<rect width="100" height="100" fill="white"/>
</clipPath>
</defs>
</svg>
