<svg width="60" height="60" viewBox="0 0 100 100" fill="none" xmlns="http://www.w3.org/2000/svg">
<g clip-path="url(#clip0)">
<path d="M92.2882 98.5354H7.71176C5.46612 98.5354 3.64558 96.7148 3.64558 94.4692V5.53194C3.64538 3.2863 5.46592 1.46576 7.71176 1.46576H92.2884C94.5341 1.46576 96.3546 3.2863 96.3546 5.53194V94.4692C96.3544 96.7148 94.5341 98.5354 92.2882 98.5354Z" fill="#C3E5AD"/>
<path d="M96.3554 5.53214V94.4677C96.3554 96.7137 94.5343 98.535 92.288 98.535H87.1417C89.3878 98.535 91.2069 96.7139 91.2069 94.4677V5.53214C91.2069 3.2861 89.3878 1.46478 87.1417 1.46478H92.288C94.5343 1.46498 96.3554 3.2861 96.3554 5.53214Z" fill="#C3E5AD"/>
<path d="M83.8025 89.6497H16.1975C13.9519 89.6497 12.1313 87.8292 12.1313 85.5835V14.4164C12.1313 12.1708 13.9519 10.3502 16.1975 10.3502H83.8025C86.0481 10.3502 87.8687 12.1708 87.8687 14.4164V85.5835C87.8687 87.8292 86.0481 89.6497 83.8025 89.6497Z" fill="#C3E5AD"/>
<path d="M87.8974 14.39V85.6097C87.8974 87.8583 86.0747 89.679 83.8281 89.679H78.6765C80.9231 89.679 82.7458 87.8583 82.7458 85.6097V14.39C82.7458 12.1415 80.9231 10.3207 78.6765 10.3207H83.8281C86.0747 10.3209 87.8974 12.1415 87.8974 14.39Z" fill="#C3E5AD"/>
<path d="M66.8079 73.03C63.7244 73.2441 60.4941 72.3723 57.8234 70.9448C57.2545 70.6408 56.7087 70.2913 56.2191 69.8697C55.2495 69.035 54.5158 67.9148 54.5035 66.5994C54.4931 65.5037 54.9591 64.4382 55.7712 63.7023C57.3114 62.3062 59.6017 62.5481 61.1759 63.7622C62.6466 64.8965 64.1991 65.457 66.0542 65.3148C67.1791 65.2284 69.2362 64.9295 69.4845 63.5389C69.5728 63.0439 68.6783 62.3309 67.3573 61.8434C66.645 61.5807 65.9321 61.3195 65.2247 61.0442C62.5005 59.9846 59.6054 58.7285 57.5757 56.5514C55.5852 54.4165 55.1732 51.0179 56.1834 48.3173C56.8642 46.4971 58.329 45.1015 59.971 44.1249C63.4087 42.0805 67.7761 41.6139 71.6161 42.5974C74.2421 43.2698 77.8968 45.3187 77.7081 48.4599C77.5919 50.3941 76.1144 52.0943 74.0875 51.9714C73.0035 51.9056 71.974 51.4074 71.0073 50.9524C69.3366 50.1661 67.2633 49.8977 65.5781 50.8944C65.2236 51.104 64.3691 51.5528 64.3017 52.0201C64.2815 52.1603 64.3097 52.2518 64.3509 52.3135C65.2681 52.7122 67.5708 53.6951 70.0286 54.6017C72.5501 55.5318 74.4613 56.9161 75.7092 58.716C76.9798 60.5488 77.4676 62.7435 77.0834 64.8957C76.628 67.4461 75.0327 69.6556 72.8705 71.0501C71.0814 72.2037 68.9293 72.8829 66.8079 73.03Z" fill="#C3E5AD"/>
<path d="M64.3015 52.0209C64.2819 52.16 64.3093 52.252 64.3505 52.3127C65.2669 52.7122 67.5698 53.6953 70.0274 54.6019C72.5497 55.532 74.4609 56.9165 75.7082 58.7162C76.979 60.549 77.4666 62.7442 77.083 64.8963C76.6266 67.4459 75.0327 69.6568 72.8708 71.0511C71.081 72.2045 68.9289 72.882 66.8081 73.0308C66.5575 73.0484 66.3088 73.0582 66.0581 73.0601C67.1684 72.7175 68.2358 72.2299 69.1991 71.6071C71.4236 70.1737 73.0627 67.9021 73.5308 65.28C73.944 62.9674 73.3917 60.9425 71.4766 59.4425C70.5426 58.7121 69.4497 58.2166 68.3708 57.729C66.8611 57.0476 65.3531 56.366 63.8434 55.6846C62.453 55.0559 60.8042 54.0514 60.4713 52.4006C60.0444 50.2759 61.609 48.7916 63.4517 48.1278C65.9073 47.2445 68.3903 47.1977 70.9126 47.7851C71.8859 48.0103 72.8435 48.3157 73.8363 48.4235C75.4539 48.5997 76.8462 48.2356 77.5491 47.1193C77.6784 47.5423 77.7351 47.9889 77.7077 48.4607C77.5923 50.3935 76.1138 52.0951 74.087 51.9718C73.0041 51.9052 71.974 51.4078 71.0065 50.9536C69.3362 50.1663 67.2623 49.8981 65.5783 50.8948C65.2238 51.1044 64.3681 51.5528 64.3015 52.0209Z" fill="#C3E5AD"/>
<path d="M47.2184 31.1924C44.4009 28.4492 40.6983 26.9385 36.7921 26.9385C36.7921 26.9385 26.2295 26.9385 26.2028 26.9385C25.1383 26.9385 24.1777 27.3413 23.4289 28.0901C22.674 28.8477 22.2862 29.7839 22.2862 30.855V68.8863C22.2862 71.0493 24.0396 72.8029 26.2028 72.8029C28.366 72.8029 30.1193 71.0495 30.1193 68.8863V56.2617C32.4497 56.2494 35.2652 56.2363 36.7923 56.2363C40.6985 56.2363 44.4013 54.7256 47.2186 51.9824C50.0773 49.1991 51.6515 45.5074 51.6515 41.5872C51.6513 37.6673 50.0771 33.9755 47.2184 31.1924ZM36.7921 48.4034C35.2713 48.4034 32.4933 48.4163 30.1709 48.4284C30.1586 46.0341 30.1455 43.1417 30.1455 41.5874C30.1455 40.2742 30.1379 37.2702 30.1308 34.7714H36.7921C40.6006 34.7714 43.8184 37.8926 43.8184 41.5874C43.8184 45.2822 40.6006 48.4034 36.7921 48.4034Z" fill="#C3E5AD"/>
<path d="M47.2194 31.193C44.4015 28.4494 40.6985 26.9377 36.7918 26.9377H33.2669C37.1737 26.9377 40.8767 28.4494 43.6945 31.193C48.6959 36.063 48.6822 44.1643 43.6945 49.0227C40.8767 51.7642 37.1737 52.6775 33.2669 52.6775C31.9961 52.6775 29.8341 52.6872 27.8014 52.697C27.1336 52.6989 26.595 53.2434 26.595 53.9111V68.8871C26.595 70.4165 25.7177 71.7403 24.4391 72.3826C24.9697 72.6528 25.569 72.8036 26.2035 72.8036C28.3654 72.8036 30.1201 71.0491 30.1201 68.8871V56.2623C32.4503 56.2486 35.2644 56.2369 36.7918 56.2369C40.6985 56.2369 44.4015 54.7252 47.2194 51.9816C50.0765 49.1989 51.6509 45.5076 51.6509 41.5872C51.6509 37.6667 50.0763 33.9755 47.2194 31.193Z" fill="#C3E5AD"/>
<path d="M92.2882 0H7.71156C4.66163 0 2.18039 2.48144 2.18039 5.53136V94.4686C2.18039 97.5186 4.66163 100 7.71156 100H55.2876C56.097 100 56.7528 99.344 56.7528 98.5348C56.7528 97.7256 56.097 97.0696 55.2876 97.0696H7.71156C6.27743 97.0696 5.11076 95.9028 5.11076 94.4686V5.53136C5.11076 4.09724 6.27743 2.93037 7.71156 2.93037H92.2882C93.7225 2.93037 94.8892 4.09724 94.8892 5.53136V94.4686C94.8892 95.9028 93.7223 97.0696 92.2882 97.0696H62.1252C61.3158 97.0696 60.66 97.7256 60.66 98.5348C60.66 99.344 61.3158 100 62.1252 100H92.288C95.338 100 97.8194 97.5186 97.8194 94.4686V5.53136C97.8196 2.48144 95.3382 0 92.2882 0V0Z" fill="black"/>
<path d="M89.3339 85.5835V14.4164C89.3339 11.3663 86.8524 8.88507 83.8025 8.88507H16.1977C13.1478 8.88507 10.6664 11.3665 10.6664 14.4164V85.5835C10.6664 88.6337 13.1478 91.1149 16.1977 91.1149H83.8025C86.8524 91.1149 89.3339 88.6337 89.3339 85.5835ZM13.5965 85.5835V14.4164C13.5965 12.9821 14.7634 11.8154 16.1975 11.8154H83.8023C85.2366 11.8154 86.4033 12.9823 86.4033 14.4164V85.5835C86.4033 87.0179 85.2364 88.1845 83.8023 88.1845H16.1977C14.7634 88.1845 13.5965 87.0179 13.5965 85.5835Z" fill="black"/>
<path d="M48.2405 30.1425C45.148 27.1315 41.0822 25.4733 36.792 25.4733H26.2026C24.7442 25.4733 23.4267 26.0199 22.3908 27.0559C21.3636 28.0866 20.8209 29.4002 20.8209 30.855V46.4438C20.8209 47.2529 21.4767 47.909 22.286 47.909C23.0954 47.909 23.7512 47.2529 23.7512 46.4438V30.8548C23.7512 30.1732 23.9851 29.607 24.4647 29.1259C24.9441 28.6465 25.5286 28.4034 26.2026 28.4034H36.792C40.3141 28.4034 43.6539 29.7666 46.1961 32.2418C48.7691 34.7469 50.1861 38.0658 50.1861 41.5872C50.1861 45.1085 48.7691 48.4274 46.1961 50.9325C43.6539 53.4077 40.3143 54.7709 36.792 54.7709C35.2295 54.7709 32.2964 54.7848 30.1113 54.7963C29.3053 54.8006 28.6539 55.4554 28.6539 56.2615V68.8861C28.6539 70.2378 27.5543 71.3375 26.2026 71.3375C24.8509 71.3375 23.7512 70.2378 23.7512 68.8861V53.2975C23.7512 52.4883 23.0954 51.8323 22.286 51.8323C21.4767 51.8323 20.8209 52.4883 20.8209 53.2975V68.8863C20.8209 71.8538 23.2351 74.268 26.2026 74.268C29.1701 74.268 31.5843 71.8538 31.5843 68.8863V57.7194C33.4804 57.7101 35.5633 57.7015 36.792 57.7015C41.0822 57.7015 45.148 56.0433 48.2405 53.0322C51.3848 49.9708 53.1164 45.9061 53.1164 41.5874C53.1164 37.2686 51.3848 33.204 48.2405 30.1425Z" fill="black"/>
<path d="M29.1404 49.4699C29.4147 49.7415 29.785 49.8937 30.1709 49.8937H30.1787C32.337 49.8821 35.2365 49.8687 36.7921 49.8687C41.395 49.8687 45.2836 46.0764 45.2836 41.5874C45.2836 37.0985 41.395 33.3062 36.7921 33.3062H30.1308C29.7415 33.3062 29.3684 33.4611 29.0933 33.7368C28.8182 34.0124 28.6645 34.3862 28.6656 34.7755C28.6727 37.2728 28.6803 40.2748 28.6803 41.5874C28.6803 42.8451 28.6887 45.0853 28.7057 48.4359C28.7077 48.8247 28.8641 49.1966 29.1404 49.4699ZM36.7921 36.2366C39.8065 36.2366 42.3532 38.687 42.3532 41.5874C42.3532 44.4879 39.8065 46.9383 36.7921 46.9383C35.5635 46.9383 33.5041 46.9467 31.6288 46.9559C31.6165 44.4113 31.6107 42.6474 31.6107 41.5874C31.6107 40.5239 31.6058 38.3517 31.5999 36.2366H36.7921Z" fill="black"/>
<path d="M76.6407 43.4656C75.3898 42.4503 73.6908 41.6165 71.9792 41.1783C67.638 40.0665 62.8685 40.6975 59.2216 42.866C57.0646 44.1487 55.5393 45.8566 54.8108 47.8043C53.5445 51.1896 54.2247 55.1064 56.5036 57.5509C58.7625 59.9737 61.9154 61.3295 64.6934 62.4102C65.3443 62.6634 66.0048 62.9068 66.6432 63.1424L66.8499 63.2186C67.1418 63.3262 67.3856 63.4394 67.5811 63.5445C67.2678 63.664 66.7573 63.7918 65.9419 63.8543C64.5283 63.9635 63.3335 63.5769 62.0705 62.6024C59.7951 60.8477 56.7321 60.8542 54.7871 62.6171C53.6613 63.6373 53.024 65.0938 53.0383 66.6137C53.0533 68.2075 53.8436 69.7582 55.2632 70.9806C55.7942 71.4377 56.4057 71.8487 57.1328 72.2373C59.9249 73.7296 62.9863 74.5281 65.8651 74.5281C66.2162 74.5281 66.5647 74.5162 66.9095 74.4921C69.3142 74.3253 71.713 73.5401 73.6642 72.2818C76.2414 70.6197 78.0133 68.0217 78.5253 65.1536C78.9781 62.6173 78.4055 60.0347 76.913 57.8816C75.4902 55.8296 73.3444 54.2636 70.5353 53.2274C69.2698 52.7607 68.0412 52.2711 67.0308 51.8556C68.0023 51.5794 69.2024 51.7228 70.3834 52.2788L70.4681 52.3186C71.4981 52.8037 72.6655 53.3536 73.9988 53.4345C75.3806 53.5181 76.6823 53.0133 77.6616 52.0123C78.5554 51.0986 79.0912 49.8684 79.1706 48.5486C79.2839 46.6585 78.4092 44.9009 76.6407 43.4656ZM76.2453 48.3724C76.2087 48.9795 75.9614 49.5594 75.5666 49.963C75.3009 50.2345 74.8447 50.5492 74.176 50.5092C73.4046 50.4625 72.5464 50.0581 71.7165 49.6674L71.6309 49.627C69.229 48.4964 66.7509 48.4988 64.8323 49.6334L64.7311 49.6922C64.0885 50.0634 63.0135 50.6846 62.8511 51.8113C62.7636 52.4188 62.9547 52.8613 63.1307 53.1256C63.287 53.3604 63.5077 53.5451 63.7662 53.6576C64.6633 54.0475 67.0197 55.054 69.521 55.9767C71.755 56.8005 73.4315 58.0031 74.5046 59.5511C75.5529 61.0632 75.9563 62.8699 75.6406 64.6387C75.271 66.7085 73.9719 68.5966 72.0761 69.8192C70.5332 70.8141 68.6263 71.4356 66.7065 71.569C64.1145 71.7487 61.1287 71.0505 58.514 69.6531C57.9789 69.3671 57.5411 69.075 57.175 68.7601C56.6294 68.2905 55.9773 67.5321 55.9685 66.5866C55.962 65.9128 56.256 65.2408 56.7546 64.7889C57.1983 64.3868 57.7408 64.2171 58.2936 64.2171C59.0018 64.2171 59.7268 64.496 60.2806 64.9233C62.1092 66.3338 64.0334 66.9406 66.166 66.7765C69.7098 66.5045 70.7108 65.0061 70.9266 63.7971C71.1603 62.4868 70.044 61.274 67.8638 60.4697L67.6566 60.3933C67.03 60.1624 66.3822 59.9235 65.7553 59.6797C63.2794 58.7166 60.4842 57.5239 58.6466 55.5531C57.1314 53.928 56.6825 51.1638 57.555 48.8315C58.1772 47.1684 59.6191 46.0394 60.719 45.385C63.7105 43.6058 67.6478 43.0944 71.2519 44.0175C73.253 44.5295 76.3779 46.165 76.2453 48.3724Z" fill="black"/>
</g>
<defs>
<clipPath id="clip0">
<rect width="100" height="100" fill="white"/>
</clipPath>
</defs>
</svg>
