<svg width="20" height="20" viewBox="0 0 42 42" fill="none" xmlns="http://www.w3.org/2000/svg">
<g clip-path="url(#clip0)">
<path d="M33.213 24.1833L35.882 21L14.5196 19.3594L12.3048 21L5.5372 27.7676L33.213 24.1833Z" fill="white"/>
<path d="M33.213 22.5427V24.1833L41.3849 21L35.882 20.1797V21L33.213 22.5427Z" fill="#C3E5AD"/>
<path d="M33.213 17.8166L5.5372 14.2324L12.3048 21H35.882L33.213 17.8166Z" fill="white"/>
<path d="M35.882 21H41.3849L33.213 17.8167V19.4573L35.882 21Z" fill="#C3E5AD"/>
<path d="M0.615326 41.3848L41.3849 21L33.213 22.5427L27.4708 24.1833L0.615326 41.3848Z" fill="white"/>
<path d="M5.5372 27.7676L0.615326 41.3848L33.213 22.5427L5.5372 27.7676Z" fill="#C3E5AD"/>
<path d="M41.3849 21L0.615326 0.615234L26.6505 17.8166L33.213 19.4572L41.3849 21Z" fill="white"/>
<path d="M0.615326 0.615234L5.5372 14.2324L33.213 19.4572L0.615326 0.615234Z" fill="#C3E5AD"/>
<path d="M41.9948 21.0823C41.9956 21.0767 41.9965 21.0711 41.997 21.0654C41.9973 21.0629 41.9974 21.0604 41.9977 21.0578C41.9984 21.0498 41.9987 21.0417 41.9992 21.0337C41.9997 21.0236 42.0004 21.0136 42.0005 21.0035C42.0005 20.9868 41.9997 20.9768 41.9992 20.9668C41.9988 20.9587 41.9985 20.9507 41.9977 20.9426C41.9974 20.9401 41.9974 20.9376 41.997 20.935C41.9965 20.9294 41.9956 20.9238 41.9948 20.9181C41.9942 20.9139 41.9934 20.9098 41.9928 20.9056C41.9925 20.9041 41.9923 20.9026 41.992 20.9011C41.9912 20.896 41.991 20.8911 41.99 20.8861C41.9885 20.8795 41.9881 20.8767 41.9875 20.8739C41.9851 20.8628 41.982 20.852 41.9791 20.8411C41.9776 20.8353 41.977 20.832 41.9761 20.8288C41.9755 20.8266 41.9749 20.8244 41.9742 20.8221C41.9735 20.8197 41.9728 20.8171 41.972 20.8147C41.9695 20.8065 41.9661 20.7986 41.9632 20.7906C41.9627 20.7889 41.962 20.7872 41.9614 20.7856C41.9588 20.7783 41.9564 20.771 41.9536 20.7639C41.9527 20.7619 41.9519 20.76 41.9511 20.758C41.9504 20.7563 41.9495 20.7545 41.9486 20.7528C41.9476 20.7504 41.9463 20.7481 41.9452 20.7458C41.9446 20.7445 41.9439 20.7432 41.9433 20.7419C41.9424 20.7399 41.9413 20.7379 41.9404 20.7359C41.9361 20.7268 41.9321 20.7175 41.9273 20.7087C41.9266 20.7073 41.9257 20.706 41.925 20.7046C41.9224 20.6998 41.9193 20.6953 41.9166 20.6906C41.9153 20.6885 41.914 20.6865 41.9128 20.6843C41.9104 20.6804 41.9082 20.6765 41.9057 20.6725C41.9025 20.6673 41.8995 20.662 41.8961 20.6569C41.8915 20.6503 41.8883 20.6464 41.8853 20.6424C41.8773 20.6312 41.8692 20.6198 41.8605 20.6093C41.8548 20.6025 41.85 20.5977 41.8454 20.5926C41.8373 20.5835 41.8294 20.5742 41.8208 20.5657C41.8154 20.5604 41.8109 20.5565 41.8066 20.5524C41.8026 20.5487 41.7985 20.5451 41.7945 20.5415C41.7888 20.5364 41.7834 20.5311 41.7776 20.5263C41.7669 20.5174 41.7571 20.5105 41.7474 20.5034C41.7441 20.5011 41.7411 20.4984 41.7377 20.4961C41.7365 20.4953 41.7354 20.4943 41.7343 20.4935C41.7331 20.4927 41.7321 20.4919 41.7308 20.4911C41.7188 20.483 41.7085 20.4772 41.6984 20.4712C41.6924 20.4677 41.6867 20.4637 41.6806 20.4605C41.6794 20.4598 41.6781 20.4591 41.6769 20.4584C41.6727 20.4561 41.6683 20.4542 41.664 20.452C41.6605 20.45 0.890926 0.0651982 0.890926 0.0651982C0.665832 -0.0473487 0.394965 -0.011419 0.206949 0.155761C0.0189334 0.323022 -0.0483323 0.587901 0.0371443 0.824643L4.95902 14.4418C4.96058 14.4462 4.96271 14.4502 4.96435 14.4545C4.96936 14.4674 4.97477 14.4801 4.98059 14.4927C4.98396 14.5 4.98748 14.5071 4.99118 14.5143C4.99733 14.5262 5.00381 14.5376 5.0107 14.549C5.01497 14.5561 5.01907 14.5632 5.02358 14.57C5.03104 14.5814 5.03908 14.5924 5.04737 14.6033C5.05196 14.6093 5.05631 14.6156 5.06115 14.6216C5.07206 14.635 5.08379 14.6478 5.09585 14.6603C5.09823 14.6627 5.1002 14.6654 5.10266 14.6678C5.10536 14.6705 11.4351 21.0002 11.4351 21.0002L5.10536 27.3299C5.1002 27.3351 5.09815 27.3378 5.09585 27.3403C5.08379 27.3527 5.07214 27.3655 5.06115 27.379C5.05631 27.3849 5.05196 27.3911 5.04737 27.3973C5.03916 27.4082 5.03113 27.4191 5.02358 27.4305C5.01907 27.4374 5.01488 27.4444 5.0107 27.4515C5.00389 27.4629 4.99733 27.4745 4.99118 27.4863C4.98748 27.4934 4.98404 27.5005 4.98059 27.5078C4.97477 27.5204 4.96936 27.5331 4.96435 27.5461C4.96271 27.5503 4.96058 27.5544 4.95902 27.5587L0.0371443 41.1759C-0.0483323 41.4126 0.0188513 41.6774 0.206867 41.8447C0.322039 41.9471 0.468219 42.0002 0.615957 42.0002C0.709472 42.0002 0.803644 41.9789 0.891008 41.9353L41.6605 21.5505C41.6683 21.5462 41.6727 21.5443 41.6769 21.542C41.6797 21.5405 41.6824 21.5388 41.6852 21.5372C41.6921 21.5333 41.6989 21.5291 41.7057 21.5249C41.7133 21.5202 41.7212 21.5159 41.7285 21.5109C41.7299 21.51 41.7311 21.509 41.7324 21.5081C41.7422 21.5012 41.7476 21.4968 41.753 21.4927C41.7607 21.4869 41.7687 21.4814 41.7761 21.4754C41.7786 21.4733 41.7808 21.4711 41.7832 21.469C41.7872 21.4657 41.791 21.4621 41.7949 21.4585C41.7984 21.4553 41.802 21.4523 41.8055 21.4491C41.809 21.4458 41.8127 21.4427 41.8162 21.4393C41.8173 21.4382 41.8185 21.437 41.8196 21.4359C41.8229 21.4326 41.8258 21.429 41.829 21.4256C41.838 21.4164 41.8468 21.407 41.855 21.3972C41.8563 21.3957 41.8577 21.3942 41.859 21.3927C41.862 21.389 41.8647 21.385 41.8676 21.3813C41.8753 21.3717 41.8828 21.3618 41.8899 21.3516C41.8912 21.3498 41.8927 21.3479 41.8941 21.346C41.8967 21.3421 41.8991 21.3379 41.9016 21.334C41.9034 21.3311 41.9055 21.3284 41.9073 21.3256C41.913 21.3165 41.9166 21.3101 41.9202 21.3036C41.9216 21.301 41.9234 21.2984 41.9248 21.2958C41.9271 21.2918 41.9289 21.2875 41.9311 21.2835C41.9361 21.2739 41.9408 21.2641 41.9453 21.2542C41.9463 21.252 41.9475 21.2498 41.9485 21.2476C41.9493 21.2458 41.9501 21.2441 41.9509 21.2423C41.9527 21.2384 41.9541 21.2343 41.9557 21.2302C41.9593 21.2213 41.9625 21.2121 41.9658 21.2029C41.9678 21.1972 41.9701 21.1915 41.972 21.1857C41.9732 21.1822 41.974 21.1786 41.9751 21.175C41.9755 21.1732 41.9763 21.1716 41.9768 21.1698C41.9785 21.1636 41.9797 21.1572 41.9813 21.151C41.9833 21.1429 41.9857 21.1348 41.9874 21.1266C41.988 21.1238 41.9884 21.1211 41.9889 21.1184C41.9892 21.117 41.9897 21.1157 41.9899 21.1143C41.9908 21.1093 41.9911 21.1044 41.9919 21.0994C41.9922 21.0978 41.9924 21.0964 41.9927 21.0948C41.9933 21.0906 41.9942 21.0865 41.9948 21.0823ZM37.1632 19.577L5.99688 13.6932L1.71772 1.85422L37.1632 19.577ZM12.5601 21.6155H15.7855C16.1254 21.6155 16.4007 21.3401 16.4007 21.0002C16.4007 20.6604 16.1254 20.385 15.7855 20.385H12.5601L7.38206 15.2069L34.8099 20.385H18.2465C17.9067 20.385 17.6313 20.6604 17.6313 21.0002C17.6313 21.3401 17.9067 21.6155 18.2465 21.6155H34.8099L7.38206 26.7934L12.5601 21.6155ZM5.99688 28.3072L37.1632 22.4235L1.71772 40.1462L5.99688 28.3072Z" fill="#C3E5AD"/>
<path d="M5.53711 21.6152C5.87689 21.6152 6.15234 21.3398 6.15234 21C6.15234 20.6602 5.87689 20.3848 5.53711 20.3848C5.19732 20.3848 4.92188 20.6602 4.92188 21C4.92188 21.3398 5.19732 21.6152 5.53711 21.6152Z" fill="#C3E5AD"/>
<path d="M3.07626 21.6152C3.41605 21.6152 3.6915 21.3398 3.6915 21C3.6915 20.6602 3.41605 20.3848 3.07626 20.3848C2.73648 20.3848 2.46103 20.6602 2.46103 21C2.46103 21.3398 2.73648 21.6152 3.07626 21.6152Z" fill="#C3E5AD"/>
<path d="M0.615326 21.6152C0.95511 21.6152 1.23056 21.3398 1.23056 21C1.23056 20.6602 0.95511 20.3848 0.615326 20.3848C0.275541 20.3848 9.15527e-05 20.6602 9.15527e-05 21C9.15527e-05 21.3398 0.275541 21.6152 0.615326 21.6152Z" fill="#C3E5AD"/>
</g>
<defs>
<clipPath id="clip0">
<rect width="42" height="42" fill="white"/>
</clipPath>
</defs>
</svg>
